<?xml version="1.0" encoding="UTF-8"?>
<svg width="155px" height="85px" viewBox="0 0 155 85" version="1.1" xmlns="http://www.w3.org/2000/svg" xmlns:xlink="http://www.w3.org/1999/xlink">
    <!-- Generator: Sketch 53.2 (72643) - https://sketchapp.com -->
    <title>分组 3</title>
    <desc>Created with Sketch.</desc>
    <g id="页面1" stroke="none" stroke-width="1" fill="none" fill-rule="evenodd">
        <g id="首页_再存一笔弹窗_交易密码弹窗_完成" transform="translate(-110.000000, -483.000000)">
            <g id="分组-3" transform="translate(111.000000, 475.000000)">
                <g id="正确" transform="translate(27.000000, 0.000000)" fill-rule="nonzero">
                    <rect id="矩形" fill="#000000" opacity="0" x="0" y="0" width="101" height="102"></rect>
                    <path d="M50.9459403,92.8928571 C45.2901559,92.8928571 39.7928523,91.7725076 34.6224154,89.5618177 C29.6302694,87.4311529 25.1432811,84.3802009 21.290216,80.4889867 C17.437151,76.5977724 14.4161102,72.0763616 12.3063343,67.0247853 C10.1272229,61.8131591 9.01785714,56.2714298 9.01785714,50.5496444 C9.01785714,44.8378621 10.1272229,39.2861298 12.3162393,34.0645004 C14.4260153,29.0229272 17.447056,24.4915133 21.3001211,20.6002991 C25.1531861,16.7090849 29.6302694,13.6581328 34.6323204,11.527468 C39.8027573,9.31677816 45.2901559,8.19642857 50.9558454,8.19642857 C56.6116298,8.19642857 62.1089334,9.31677816 67.2793703,11.527468 C72.2715163,13.6581328 76.7585047,16.7090849 80.6115697,20.6002991 C84.4646348,24.4915133 87.4856755,29.0129241 89.5954515,34.0645004 C91.7745628,39.2861298 92.8839286,44.8378621 92.8839286,50.5496444 C92.8839286,56.2614267 91.7745628,61.8131591 89.5855464,67.0347884 C87.4757704,72.0763616 84.4547297,76.6077756 80.6016647,80.4989898 C76.7485996,84.390204 72.2715163,87.441156 67.2694653,89.5718209 C62.0990284,91.7725076 56.6116298,92.8928571 50.9459403,92.8928571 Z M50.9459403,11.8175585 C29.7986553,11.8175585 12.5836757,29.1929803 12.5836757,50.5596475 C12.5836757,71.9163116 29.7887502,89.3017366 50.9459403,89.3017366 C72.0932254,89.3017366 89.308205,71.9263148 89.308205,50.5596475 C89.308205,29.1929803 72.1031304,11.8175585 50.9459403,11.8175585 Z" id="形状" fill="#21A0FF"></path>
                    <path d="M25.25,50.0892857 C25.2499999,59.1995582 30.0626226,67.6177972 37.8749999,72.1729335 C45.6873771,76.7280698 55.3126229,76.7280698 63.1250001,72.1729335 C70.9373774,67.6177972 75.7500001,59.1995582 75.75,50.0892857 C75.7500001,40.9790132 70.9373774,32.5607742 63.1250001,28.0056379 C55.3126229,23.4505016 45.6873771,23.4505016 37.8749999,28.0056379 C30.0626226,32.5607742 25.2499999,40.9790132 25.25,50.0892857 L25.25,50.0892857 Z" id="路径" fill="#21A0FF"></path>
                    <path d="M47.1168058,62.1975217 C46.2130231,63.0532071 44.7523642,63.0532071 43.8485815,62.1975217 L34.0439085,52.914632 C33.1401258,52.0589466 33.1401258,50.6760208 34.0439085,49.8203354 C34.9476912,48.9646501 36.4083501,48.9646501 37.3121328,49.8203354 L47.1168058,59.1032251 C48.0205885,59.9589105 48.0205885,61.3504796 47.1168058,62.1975217 Z" id="路径" fill="#FFFFFF"></path>
                    <path d="M67.0064651,38.9013425 C67.8430831,39.7786609 67.8430831,41.1965492 67.0064651,42.0738677 L47.8403091,62.1812969 C47.0036911,63.0586153 45.6515814,63.0586153 44.8149634,62.1812969 C43.9783455,61.3039785 43.9783455,59.8860901 44.8149634,59.0087717 L63.9811195,38.9013425 C64.8177374,38.0328858 66.1698472,38.0328858 67.0064651,38.9013425 L67.0064651,38.9013425 Z" id="路径" fill="#FFFFFF"></path>
                </g>
                <path d="M0.454545455,51 L19.843587,51" id="直线-6" stroke="#21A0FF" stroke-width="2" stroke-linecap="round"></path>
                <path d="M133.454545,51 L152.843587,51" id="直线-6-copy" stroke="#21A0FF" stroke-width="2" stroke-linecap="round"></path>
            </g>
        </g>
    </g>
</svg>