<?xml version="1.0" encoding="UTF-8"?>
<svg width="16px" height="15px" viewBox="0 0 16 15" version="1.1" xmlns="http://www.w3.org/2000/svg" xmlns:xlink="http://www.w3.org/1999/xlink">
    <!-- Generator: Sketch 53.2 (72643) - https://sketchapp.com -->
    <title>返回</title>
    <desc>Created with Sketch.</desc>
    <g id="页面1" stroke="none" stroke-width="1" fill="none" fill-rule="evenodd">
        <g id="首页_再存一笔弹窗_交易密码弹窗" transform="translate(-16.000000, -484.000000)" fill-rule="nonzero">
            <g id="返回" transform="translate(14.000000, 481.000000)">
                <rect id="矩形" fill="#000000" opacity="0" x="0" y="0" width="20" height="20"></rect>
                <path d="M9.83784157,16.3125761 C8.93474367,15.4169237 8.02842577,14.524368 7.12140788,13.6325223 C6.08059029,12.6090211 5.03787271,11.5873936 3.95445523,10.5242083 C4.21355463,10.2502266 4.42207414,10.0165207 4.64459363,9.79658195 C6.34086969,8.11995073 8.04062575,6.44677115 9.73702181,4.77027801 C9.9174214,4.59197594 10.1126209,4.41795389 10.2489806,4.20894206 C10.4590601,3.88693325 10.4533402,3.53460913 10.1743808,3.25100233 C9.86488153,2.93635045 9.49026238,2.92646889 9.13072323,3.17131866 C8.94844365,3.29540034 8.795024,3.46281494 8.63672438,3.61871091 C6.64288899,5.58247947 4.64865363,7.54577467 2.65873824,9.51340909 C1.78528026,10.3771091 1.78302028,10.6050754 2.63661828,11.4494462 C4.62621368,13.4173567 6.61954903,15.3815986 8.61358442,17.3451108 C8.794164,17.5229001 8.97664357,17.7044368 9.18324309,17.8495834 C9.51600232,18.0833682 9.85316152,18.0369386 10.1427609,17.7637262 C10.4358402,17.4872594 10.4606001,17.144087 10.2744206,16.8106779 C10.1693408,16.6224943 9.99492121,16.4684129 9.83784157,16.3125761 Z M16.989885,9.69563616 C16.8307254,9.68707608 16.6707257,9.69293401 16.5111261,9.69293401 C13.7656925,9.69285512 11.0202788,9.69173086 8.2748652,9.69348628 C7.21956764,9.69415688 6.8064886,9.92218235 6.84132853,10.5076995 C6.87680845,11.1040648 7.2028277,11.30641 8.31648512,11.2804734 C9.68842193,11.2484618 11.0617187,11.2728009 12.4344156,11.2728403 C12.9132744,11.27286 13.3921333,11.2732348 13.8709722,11.2728009 C14.9244298,11.2718344 15.9782873,11.2869033 17.0312449,11.2631757 C17.6789434,11.2486196 18.0153426,10.9421531 17.9994627,10.4657473 C17.9836827,9.99299036 17.6424035,9.73052735 16.989885,9.69563616 Z" id="形状" fill="#999999"></path>
            </g>
        </g>
    </g>
</svg>