<?xml version="1.0" encoding="UTF-8"?>
<svg width="22px" height="22px" viewBox="0 0 22 22" version="1.1" xmlns="http://www.w3.org/2000/svg" xmlns:xlink="http://www.w3.org/1999/xlink">
    <!-- Generator: Sketch 53.2 (72643) - https://sketchapp.com -->
    <title>power_saidao_aixin</title>
    <desc>Created with Sketch.</desc>
    <g id="页面1" stroke="none" stroke-width="1" fill="none" fill-rule="evenodd">
        <g id="趣味_top10" transform="translate(-90.000000, -214.000000)">
            <g id="power_saidao_aixin" transform="translate(90.000000, 214.000000)">
                <rect id="矩形" fill="#000000" fill-rule="nonzero" opacity="0" x="0" y="0" width="22" height="22"></rect>
                <path d="M11,0 C4.92487562,0 0,4.92487564 0,11 C0,17.0751244 4.92487562,22 11,22 C17.0751244,22 22,17.0751244 22,11 C22,4.92487562 17.0751244,0 11,0 Z M16.2794972,12.3654642 L11.4563462,17.0313961 C11.3253403,17.1624021 11.1441721,17.2363051 10.9535611,17.2363051 C10.7628608,17.2363051 10.5841351,17.1624318 10.4483334,17.0289535 L5.6298591,12.3654642 C4.95311429,11.6958089 4.58136486,10.807006 4.58136486,9.85853861 C4.58136486,8.91010096 4.95311429,8.02123855 5.62753565,7.351613 C6.29948465,6.68916624 7.19078965,6.32218283 8.1392273,6.32218283 C9.03041316,6.32218283 9.88600281,6.65100831 10.5484198,7.2467606 L10.9535611,7.61130141 L11.3610557,7.2467606 C12.0211492,6.65100831 12.8766197,6.32218283 13.7679247,6.32218283 C14.7163623,6.32218283 15.6075482,6.68672364 16.2794972,7.351613 C16.9563612,8.02123857 17.3281106,8.91254356 17.325668,9.85853861 C17.325668,10.807006 16.9539186,11.6982515 16.2794972,12.3654642 Z M8.09874593,7.84483632 C7.78654196,7.80912097 7.15739774,7.9235054 6.69265138,8.38822198 C6.31857853,8.76232463 6.08980964,9.3032677 6.0827202,9.83712133 C6.07795418,9.98954454 6.20187065,10.1159036 6.35429389,10.118227 L6.3590599,10.118227 C6.5091597,10.118227 6.63307617,9.99675315 6.63787198,9.84421079 C6.64263798,9.45104405 6.81180186,9.05311132 7.08596705,8.77906526 C7.41711595,8.4477972 7.87462392,8.37636651 8.0343749,8.3953412 C8.18447469,8.41208184 8.32504243,8.30481664 8.34181287,8.15224448 C8.35843437,7.99982126 8.25116917,7.86160675 8.09874593,7.84483632 Z" id="形状" fill="#EE7E00"></path>
            </g>
        </g>
    </g>
</svg>