<?xml version="1.0" encoding="UTF-8"?>
<svg width="22px" height="22px" viewBox="0 0 22 22" version="1.1" xmlns="http://www.w3.org/2000/svg" xmlns:xlink="http://www.w3.org/1999/xlink">
    <!-- Generator: Sketch 53.2 (72643) - https://sketchapp.com -->
    <title>投资中心</title>
    <desc>Created with Sketch.</desc>
    <g id="页面1" stroke="none" stroke-width="1" fill="none" fill-rule="evenodd">
        <g id="趣味_top10" transform="translate(-263.000000, -214.000000)">
            <g id="投资中心" transform="translate(274.000000, 225.000000) scale(-1, 1) translate(-274.000000, -225.000000) translate(263.000000, 214.000000)">
                <rect id="矩形" fill="#000000" fill-rule="nonzero" opacity="0" x="0" y="0" width="21.9785366" height="21.9785366"></rect>
                <path d="M5.71516678,20.6327175 C10.0390775,18.9740706 12.4845561,17.8187322 15.308798,11.089637 C16.1644957,11.7086991 17.005541,12.0178638 17.8341319,12.0178638 L15.7197966,4.69095232 L8.31302981,7.98406973 C9.03099534,8.31667824 10.1540986,8.80679961 11.6830721,9.45443383 C9.41635234,13.8940982 5.94081308,16.1080695 1.25645432,16.0963476 C0.428645148,14.5214607 -0.00262625661,12.7684619 1.46595122e-05,10.9892683 C1.46595122e-05,4.92026173 4.92027637,0 10.989283,0 C17.0582895,0 21.9785512,4.92026173 21.9785512,10.9892683 C21.9785512,17.0582749 17.0582895,21.9785366 10.989283,21.9785366 C9.07788288,21.9785366 7.28077122,21.4906131 5.71516678,20.6327175 Z" id="路径" fill="#EEA100"></path>
            </g>
        </g>
    </g>
</svg>